<svg width="55" height="110" viewBox="0 0 55 110" fill="none" xmlns="http://www.w3.org/2000/svg">
<path d="M4.93667e-06 -3.57628e-06C7.22271 -3.57628e-06 14.3747 1.42262 21.0476 4.18663C27.7205 6.95064 33.7837 11.0019 38.8909 16.1091C43.9981 21.2163 48.0494 27.2795 50.8134 33.9524C53.5774 40.6253 55 47.7773 55 55C55 62.2227 53.5774 69.3747 50.8134 76.0476C48.0494 82.7205 43.9981 88.7837 38.8909 93.8909C33.7836 98.9981 27.7205 103.049 21.0476 105.813C14.3747 108.577 7.2227 110 0 110L4.93667e-06 55L4.93667e-06 -3.57628e-06Z" fill="#4060AA"/>
</svg>
