<svg width="80" height="80" viewBox="0 0 80 80" fill="none" xmlns="http://www.w3.org/2000/svg">
<rect width="80" height="80" fill="#31645E"/>
<path d="M40 18C36.1458 18 33 21.1459 33 25C33 26.9624 33.8273 28.7266 35.1367 30H33C31.355 30 30 31.355 30 33V38C30 38.3883 30.279 38.658 30.416 39H29C27.355 39 26 40.355 26 42V47C26 47.3883 26.279 47.658 26.416 48H22C20.355 48 19 49.355 19 51V56C19 57.645 20.355 59 22 59H58C59.645 59 61 57.645 61 56V51C61 49.355 59.645 48 58 48H53.584C53.721 47.658 54 47.3883 54 47V42C54 40.355 52.645 39 51 39H49.584C49.721 38.658 50 38.3883 50 38V33C50 31.355 48.645 30 47 30H44.8633C46.1727 28.7266 47 26.9624 47 25C47 21.1459 43.8542 18 40 18ZM40 20C42.7733 20 45 22.2267 45 25C45 27.7733 42.7733 30 40 30C37.2267 30 35 27.7733 35 25C35 22.2267 37.2267 20 40 20ZM33 32H40H47C47.565 32 48 32.435 48 33V38C48 38.565 47.565 39 47 39H33C32.435 39 32 38.565 32 38V33C32 32.435 32.435 32 33 32ZM29 41H33H47H51C51.565 41 52 41.435 52 42V47C52 47.565 51.565 48 51 48H29C28.435 48 28 47.565 28 47V42C28 41.435 28.435 41 29 41ZM22 50H29H51H58C58.565 50 59 50.435 59 51V56C59 56.565 58.565 57 58 57H22C21.435 57 21 56.565 21 56V51C21 50.435 21.435 50 22 50Z" fill="white"/>
</svg>
