<svg width="39" height="16" viewBox="0 0 39 16" fill="none" xmlns="http://www.w3.org/2000/svg">
<path d="M8.50909 0C7.87284 0.030479 7.08718 0.435363 6.63838 1.00456C6.22691 1.49527 5.87506 2.2922 5.96421 3.04046C6.68275 3.10294 7.401 2.66576 7.8498 2.1118C8.29175 1.54261 8.58376 0.779501 8.50909 0ZM14.6168 1.52246V12.9521H16.4265V9.14222H18.9029C21.1759 9.14222 22.808 7.56112 22.808 5.33234C22.808 3.10356 21.2057 1.52246 18.9624 1.52246H14.6168ZM16.4265 3.04641H18.5219C20.0817 3.04641 20.9983 3.8884 20.9983 5.33234C20.9983 6.77629 20.0893 7.61827 18.5219 7.61827H16.4265V3.04641ZM8.42575 3.4274C7.37803 3.4274 6.62901 3.99888 6.13982 3.99888C5.64301 3.99888 4.90161 3.43484 4.04439 3.43484C2.99667 3.43484 1.97057 4.0925 1.42956 5.05106C0.31784 6.96743 1.14096 9.80439 2.21535 11.3642C2.74187 12.1368 3.37766 12.9521 4.23488 12.9521C5.02048 12.9224 5.28641 12.4759 6.23507 12.4759C7.19059 12.4759 7.47328 12.9521 8.3305 12.9521C9.18772 12.9521 9.7067 12.1666 10.2325 11.3939C10.8329 10.5176 11.0782 9.66341 11.0927 9.61845C11.0782 9.60398 9.43364 8.97249 9.4184 7.0706C9.40392 5.48112 10.7147 4.7232 10.7742 4.67901C10.0328 3.58024 8.80674 3.4274 8.521 3.4274H8.42575ZM26.9602 4.57037C25.0637 4.57037 23.662 5.63367 23.6102 7.0959H25.2175C25.3501 6.40098 26.0075 5.94549 26.9081 5.94549C28 5.94549 28.6166 6.44556 28.6166 7.36527L28.6181 7.99926L26.3843 8.11683C24.3109 8.2395 23.189 9.07257 23.189 10.5203C23.189 11.9826 24.3474 12.9536 26.0077 12.9536C27.1294 12.9536 28.1703 12.3961 28.6419 11.513H28.6791V12.8658H30.3311V7.24919C30.3318 5.61932 29.0046 4.57037 26.9602 4.57037ZM30.9993 4.57037L34.0531 12.9134L33.8894 13.4209C33.6136 14.2812 33.167 14.6115 32.3699 14.6115C32.2335 14.6115 31.9754 14.5977 31.8565 14.5832V15.9583C31.9769 15.985 32.3959 16 32.5262 16C34.2841 16 35.1114 15.3386 35.8345 13.3316L39 4.57037H37.168L35.0443 11.3403H35.0071L32.8834 4.57037H30.9993ZM28.6181 9.14222L28.6122 9.803C28.6122 10.8599 27.697 11.6127 26.487 11.6127C25.5352 11.6127 24.9303 11.1645 24.9303 10.4772C24.9303 9.76777 25.5136 9.35508 26.6283 9.28955L28.6181 9.14222Z" fill="black"/>
</svg>
