<svg width="33" height="31" viewBox="0 0 33 31" fill="none" xmlns="http://www.w3.org/2000/svg">
<path d="M31.6393 13.6156C29.0058 15.8277 26.2379 17.8591 23.2463 19.5599C24.0674 22.8607 24.9707 26.1404 25.9553 29.3962C26.1356 29.9928 25.7205 30.3816 25.2413 30.4522C24.9971 30.5866 24.6941 30.5908 24.3941 30.3567C21.666 28.2248 18.8568 26.1993 16.0947 24.1112C13.1245 26.1024 10.2156 28.1817 7.11734 29.9737C6.43107 30.3713 5.82704 29.768 5.81393 29.1526C5.78387 29.0049 5.79106 28.852 5.83486 28.7077C6.77119 25.504 7.84452 22.3536 9.41186 19.4058C6.40457 17.2957 4.0201 14.4732 1.23281 12.0937C0.709736 11.6474 0.959698 11.0453 1.43246 10.7735C1.58657 10.5925 1.8175 10.4731 2.12795 10.4867L11.8426 10.9066C13.2827 7.69707 14.7488 4.49967 15.949 1.18976C16.3063 0.204628 17.7325 0.547763 17.7356 1.42642C19.1095 4.72086 20.3568 8.05709 21.0146 11.5716C24.472 11.6989 27.9341 11.7041 31.3916 11.8433C32.442 11.8854 32.4849 13.3461 31.6393 13.6156ZM20.4888 13.375C20.4139 13.3719 20.3396 13.3604 20.2673 13.3405C19.8623 13.3813 19.4537 13.1807 19.3683 12.6584C18.8772 9.65665 17.9302 6.80167 16.8214 3.99151C15.7351 6.7054 14.514 9.36276 13.3202 12.0328C13.3166 12.0414 13.3109 12.0472 13.3067 12.0555C13.2243 12.4424 12.9217 12.7748 12.411 12.7528L4.26951 12.4005C6.4351 14.4528 8.4748 16.6409 10.9923 18.2793C11.1787 18.4011 11.2937 18.5549 11.3522 18.7199C11.5034 18.9758 11.5394 19.3017 11.3512 19.6318C9.9888 22.0263 9.02267 24.5855 8.19567 27.1988C10.6905 25.6364 13.095 23.9354 15.5453 22.3006C15.6151 22.2545 15.6838 22.2225 15.7517 22.1974C16.004 22.0373 16.3274 22.0136 16.6487 22.2579C18.9059 23.9732 21.1988 25.6409 23.4575 27.3532C22.7032 24.7437 21.9968 22.1213 21.3499 19.4829C21.2466 19.0611 21.4236 18.7418 21.7014 18.5616C21.7704 18.3913 21.8968 18.2362 22.1005 18.122C24.4706 16.799 26.6864 15.2588 28.8069 13.5816C26.0341 13.5113 23.2601 13.4865 20.4888 13.375Z" fill="#EC673B"/>
</svg>
