<svg width="41" height="16" viewBox="0 0 41 16" fill="none" xmlns="http://www.w3.org/2000/svg">
<g clip-path="url(#clip0_628_17723)">
<path d="M19.7649 12.5061H18.277V0.923621H22.2231C22.6942 0.913782 23.1625 0.997323 23.6011 1.16942C24.0397 1.34152 24.4398 1.59878 24.7785 1.92634C25.1205 2.23401 25.3927 2.61133 25.5768 3.03296C25.761 3.45458 25.8527 3.91073 25.8459 4.37074C25.8556 4.83322 25.7653 5.29235 25.5811 5.71665C25.3969 6.14096 25.1231 6.52042 24.7785 6.82901C24.0884 7.48701 23.2366 7.81571 22.2231 7.81509H19.7649V12.5061ZM19.7649 6.39281H22.2601C22.5337 6.40091 22.8059 6.35184 23.0594 6.24872C23.3129 6.1456 23.5421 5.99071 23.7323 5.79395C23.9215 5.60998 24.0719 5.38994 24.1746 5.14684C24.2773 4.90374 24.3303 4.64251 24.3303 4.3786C24.3303 4.11469 24.2773 3.85346 24.1746 3.61035C24.0719 3.36725 23.9215 3.14721 23.7323 2.96324C23.5445 2.76234 23.3161 2.60365 23.0623 2.4977C22.8085 2.39175 22.535 2.34095 22.2601 2.34868H19.7649V6.39281Z" fill="#5F6368"/>
<path d="M29.2745 4.32269C30.3742 4.32269 31.2423 4.61657 31.8788 5.20434C32.5152 5.7921 32.8331 6.59797 32.8325 7.62194V12.5061H31.4093V11.4064H31.3446C30.7285 12.3121 29.9091 12.7649 28.8863 12.7649C28.0133 12.7649 27.2829 12.5061 26.6952 11.9886C26.4131 11.7511 26.1876 11.4536 26.035 11.1179C25.8825 10.7821 25.8068 10.4166 25.8135 10.0479C25.8135 9.22782 26.1234 8.57567 26.7432 8.09141C27.363 7.60715 28.1905 7.36441 29.2255 7.36318C30.109 7.36318 30.8366 7.5249 31.4084 7.84836V7.50827C31.4101 7.25691 31.3558 7.00833 31.2495 6.78055C31.1432 6.55277 30.9875 6.3515 30.7938 6.19134C30.4003 5.83635 29.8876 5.64265 29.3577 5.64886C28.5265 5.64886 27.8688 5.99942 27.3846 6.70055L26.0741 5.87528C26.795 4.84022 27.8618 4.32269 29.2745 4.32269ZM27.3495 10.0802C27.3485 10.2696 27.3927 10.4564 27.4786 10.6252C27.5644 10.794 27.6893 10.9398 27.843 11.0506C28.172 11.3094 28.5805 11.4466 28.9991 11.4387C29.627 11.4377 30.2288 11.1878 30.6727 10.7438C31.1656 10.2798 31.4121 9.7355 31.4121 9.11076C30.9481 8.7411 30.3012 8.55627 29.4713 8.55627C28.8669 8.55627 28.363 8.70198 27.9594 8.9934C27.5519 9.28913 27.3495 9.64863 27.3495 10.0802Z" fill="#5F6368"/>
<path d="M41.0021 4.58145L36.0338 15.9995H34.4978L36.3415 12.0043L33.0746 4.58145H34.6919L37.0532 10.2743H37.0855L39.382 4.58145H41.0021Z" fill="#5F6368"/>
<path d="M13.7523 6.80498C13.7528 6.35154 13.7145 5.89889 13.6377 5.45201H7.36264V8.01471H10.9567C10.8832 8.42401 10.7275 8.81418 10.4991 9.1617C10.2707 9.50922 9.9743 9.80689 9.62776 10.0368V11.7003H11.7727C13.0287 10.5423 13.7523 8.82982 13.7523 6.80498Z" fill="#4285F4"/>
<path d="M7.36264 13.3074C9.15828 13.3074 10.6702 12.7178 11.7727 11.7012L9.62776 10.0377C9.03075 10.4425 8.26185 10.6735 7.36264 10.6735C5.62707 10.6735 4.15395 9.50353 3.62718 7.92691H1.41751V9.64123C1.97133 10.7433 2.82055 11.6697 3.87037 12.3171C4.92018 12.9645 6.12927 13.3073 7.36264 13.3074Z" fill="#34A853"/>
<path d="M3.62718 7.92691C3.3487 7.10075 3.3487 6.20608 3.62718 5.37993V3.66561H1.41751C0.951621 4.59268 0.708984 5.61586 0.708984 6.65342C0.708984 7.69098 0.951621 8.71416 1.41751 9.64123L3.62718 7.92691Z" fill="#FBBC04"/>
<path d="M7.36264 2.63332C8.31156 2.61782 9.22846 2.97635 9.91517 3.63141L11.8143 1.73226C10.6101 0.601159 9.01469 -0.0198356 7.36264 -0.000540001C6.12927 -0.000483788 4.92018 0.342374 3.87037 0.989756C2.82055 1.63714 1.97133 2.56357 1.41751 3.66561L3.62718 5.37993C4.15395 3.80331 5.62707 2.63332 7.36264 2.63332Z" fill="#EA4335"/>
</g>
<defs>
<clipPath id="clip0_628_17723">
<rect width="40.2906" height="16" fill="white" transform="translate(0.708984)"/>
</clipPath>
</defs>
</svg>
