<svg width="266" height="13" viewBox="0 0 266 13" fill="none" xmlns="http://www.w3.org/2000/svg">
<path d="M232.343 0.457138C232.021 0.799994 231.378 0.857138 229.419 0.799994C228.015 0.771423 222.4 0.828567 216.931 0.942852C211.463 1.05714 202.134 1.22857 196.168 1.31428C185.815 1.45714 184.032 1.51428 178.534 1.85714C173.123 2.17142 153.179 2.51428 137.826 2.57142C134.199 2.59999 127.298 2.74285 122.472 2.88571C111.213 3.28571 109.283 3.31428 88.2566 3.54285C76.2372 3.68571 69.3648 3.88571 66.4697 4.17142C63.9546 4.42857 57.6671 4.65714 50.9702 4.74285C43.8346 4.82857 38.6291 5.02857 36.7867 5.28571C34.1548 5.65714 30.8794 5.79999 18.0704 6.14285C15.8186 6.19999 12.5432 6.45714 10.7593 6.68571C9.00469 6.94285 6.34347 7.14285 4.85201 7.14285C3.3898 7.14285 1.83985 7.25714 1.45968 7.39999C0.494619 7.77142 0.289909 8.74285 0.845549 10.5143L1.3427 12H6.98684C10.5839 12 12.6602 11.8857 12.6602 11.7143C12.6602 11.5429 13.0696 11.4286 13.5376 11.4286C14.0347 11.4286 14.4149 11.5429 14.4149 11.7143C14.4149 12.1429 17.544 12.0857 17.6902 11.6571C17.8365 11.2857 20.6147 11.1429 34.1255 10.7429C37.4886 10.6286 41.8167 10.4286 43.7761 10.2857C45.7355 10.1429 52.9003 9.88571 59.7435 9.71428C66.5866 9.57142 75.2137 9.31428 78.8985 9.14285C85.7416 8.85714 94.3687 8.68571 115.6 8.42857C134.229 8.19999 142.826 8.02857 152.74 7.71428C157.799 7.57142 167.538 7.28571 174.381 7.11428C194.121 6.62857 194.53 6.62857 198.361 6.31428C200.379 6.17142 204.707 6.02857 208.012 5.99999C215.937 5.97142 229.272 5.48571 231.846 5.14285C232.986 4.99999 239.274 4.88571 245.825 4.85714C259.043 4.85714 262.786 4.59999 264.395 3.54285L265.331 2.91428L264.395 2.25714C263.81 1.85714 262.932 1.57142 262.143 1.51428C261.383 1.48571 258.897 1.31428 256.557 1.14285C254.218 0.999994 251.089 0.857138 249.597 0.828567C247.696 0.828567 246.79 0.685709 246.497 0.399995C246 -0.057148 243.397 -0.142862 243.397 0.285709C243.397 0.428566 243.134 0.571424 242.812 0.571424C242.491 0.571424 242.228 0.428566 242.228 0.285709C242.228 0.114281 240.444 -4.76837e-06 237.49 -4.76837e-06C233.601 0.0285664 232.665 0.114281 232.343 0.457138Z" fill="#EC673B"/>
</svg>
