<svg width="40" height="12" viewBox="0 0 40 12" fill="none" xmlns="http://www.w3.org/2000/svg">
<path d="M3.84115 1.72101C2.85657 1.18099 1.7329 0.746677 0.476562 0.445278L0.529261 0.210567H5.68037C6.37857 0.23504 6.94512 0.445114 7.12948 1.18702L8.24895 6.52427L8.59189 8.13178L11.7273 0.210567H15.1128L10.0804 11.8146H6.69476L3.84115 1.72101ZM17.6031 11.8269H14.4015L16.404 0.210567H19.6054L17.6031 11.8269ZM29.2093 0.494552L28.7739 3.00296L28.4843 2.87961C27.9049 2.64473 27.1402 2.41002 26.0994 2.43482C24.8353 2.43482 24.2684 2.9412 24.2553 3.43559C24.2553 3.97941 24.9411 4.3378 26.0609 4.86931C27.9055 5.69729 28.7611 6.71054 28.7483 8.0329C28.7224 10.4428 26.5353 12 23.176 12C21.7396 11.9875 20.3562 11.7027 19.6053 11.3818L20.0533 8.77416L20.4749 8.95976C21.5157 9.39272 22.2006 9.57766 23.4788 9.57766C24.4006 9.57766 25.3889 9.21894 25.4015 8.44073C25.4015 7.93403 24.9805 7.56299 23.7418 6.99453C22.5299 6.43822 20.9096 5.51153 20.9358 3.84309C20.9495 1.58171 23.176 0 26.3377 0C27.5762 0 28.5778 0.259513 29.2093 0.494552ZM33.4645 7.71163H36.1257C35.994 7.13085 35.3877 4.35029 35.3877 4.35029L35.164 3.34936C35.0059 3.78182 34.7294 4.48629 34.7427 4.46148C34.7427 4.46148 33.7282 7.04429 33.4645 7.71163ZM37.4165 0.210567L39.9994 11.8267H37.035C37.035 11.8267 36.7449 10.492 36.653 10.0842H32.5424C32.4235 10.393 31.8704 11.8267 31.8704 11.8267H28.5111L33.2667 1.17438C33.5962 0.420476 34.1764 0.210567 34.94 0.210567H37.4165Z" fill="#171E6C"/>
</svg>
