<svg width="52" height="16" viewBox="0 0 52 16" fill="none" xmlns="http://www.w3.org/2000/svg">
<path d="M21.75 0.25H2.25C1.14543 0.25 0.25 1.14543 0.25 2.25V13.75C0.25 14.8546 1.14543 15.75 2.25 15.75H21.75C22.8546 15.75 23.75 14.8546 23.75 13.75V2.25C23.75 1.14543 22.8546 0.25 21.75 0.25Z" fill="white" stroke="black" stroke-opacity="0.2" stroke-width="0.5"/>
<path d="M2.78773 5.91444C2.26459 5.62751 1.66754 5.39674 1 5.23659L1.028 5.11188H3.76498C4.13596 5.12489 4.43699 5.23651 4.53495 5.63071L5.12977 8.46659L5.31198 9.32073L6.97797 5.11188H8.77679L6.10288 11.2775H4.30397L2.78773 5.91444ZM10.1 11.2841H8.39883L9.46285 5.11188H11.1639L10.1 11.2841ZM16.2668 5.26277L16.0354 6.59559L15.8816 6.53004C15.5737 6.40525 15.1674 6.28054 14.6144 6.29371C13.9427 6.29371 13.6415 6.56277 13.6345 6.82546C13.6345 7.11441 13.9989 7.30484 14.5939 7.58725C15.574 8.02719 16.0286 8.56557 16.0218 9.26819C16.0081 10.5486 14.846 11.3761 13.0611 11.3761C12.2979 11.3694 11.5628 11.2181 11.1638 11.0476L11.4019 9.66205L11.6259 9.76066C12.1789 9.99071 12.5428 10.089 13.222 10.089C13.7118 10.089 14.2369 9.89838 14.2436 9.48488C14.2436 9.21565 14.0199 9.01851 13.3617 8.71646C12.7178 8.42087 11.8568 7.92848 11.8708 7.04198C11.8781 5.84042 13.0611 5 14.741 5C15.399 5 15.9312 5.13789 16.2668 5.26277ZM18.5278 9.09749H19.9417C19.8718 8.78889 19.5496 7.31147 19.5496 7.31147L19.4307 6.77964C19.3467 7.00943 19.1999 7.38373 19.2069 7.37056C19.2069 7.37056 18.6678 8.7429 18.5278 9.09749ZM20.6276 5.11188L22 11.284H20.4249C20.4249 11.284 20.2708 10.5748 20.2219 10.3581H18.0378C17.9746 10.5222 17.6808 11.284 17.6808 11.284H15.8958L18.4226 5.62399C18.5977 5.22342 18.906 5.11188 19.3118 5.11188H20.6276Z" fill="#171E6C"/>
<path d="M50 0H30C28.8954 0 28 0.89543 28 2V14C28 15.1046 28.8954 16 30 16H50C51.1046 16 52 15.1046 52 14V2C52 0.89543 51.1046 0 50 0Z" fill="#252525"/>
<path d="M37 13C39.7614 13 42 10.7614 42 8C42 5.23858 39.7614 3 37 3C34.2386 3 32 5.23858 32 8C32 10.7614 34.2386 13 37 13Z" fill="#EB001B"/>
<path d="M43 13C45.7614 13 48 10.7614 48 8C48 5.23858 45.7614 3 43 3C40.2386 3 38 5.23858 38 8C38 10.7614 40.2386 13 43 13Z" fill="#F79E1B"/>
<path fill-rule="evenodd" clip-rule="evenodd" d="M40 4C41.2144 4.91221 42 6.36455 42 8.00037C42 9.63618 41.2144 11.0885 40 12.0007C38.7856 11.0885 38 9.63618 38 8.00037C38 6.36455 38.7856 4.91221 40 4Z" fill="#FF5F00"/>
</svg>
