<svg width="64" height="64" viewBox="0 0 64 64" fill="none" xmlns="http://www.w3.org/2000/svg">
<rect width="64" height="64" fill="#DBE8FA"/>
<path d="M22.6667 22.6667V41.3333H41.3333V22.6667H22.6667ZM21.3333 20H42.6667C43.0203 20 43.3594 20.1405 43.6095 20.3905C43.8595 20.6406 44 20.9797 44 21.3333V42.6667C44 43.0203 43.8595 43.3594 43.6095 43.6095C43.3594 43.8595 43.0203 44 42.6667 44H21.3333C20.9797 44 20.6406 43.8595 20.3905 43.6095C20.1405 43.3594 20 43.0203 20 42.6667V21.3333C20 20.9797 20.1405 20.6406 20.3905 20.3905C20.6406 20.1405 20.9797 20 21.3333 20ZM33.3333 29.3333V38.6667H30.6667V29.3333H25.3333V26.6667H38.6667V29.3333H33.3333Z" fill="#4060AA"/>
</svg>
