<svg width="64" height="64" viewBox="0 0 64 64" fill="none" xmlns="http://www.w3.org/2000/svg">
<rect width="64" height="64" fill="#FCE0D8"/>
<path d="M45.3332 42.6667C45.3332 43.0203 45.1927 43.3594 44.9426 43.6095C44.6926 43.8595 44.3535 44 43.9998 44H19.9998C19.6462 44 19.3071 43.8595 19.057 43.6095C18.807 43.3594 18.6665 43.0203 18.6665 42.6667V21.3333C18.6665 20.9797 18.807 20.6406 19.057 20.3905C19.3071 20.1405 19.6462 20 19.9998 20H43.9998C44.3535 20 44.6926 20.1405 44.9426 20.3905C45.1927 20.6406 45.3332 20.9797 45.3332 21.3333V42.6667ZM30.6665 36H21.3332V41.3333H30.6665V36ZM42.6665 30.6667H33.3332V41.3333H42.6665V30.6667ZM30.6665 22.6667H21.3332V33.3333H30.6665V22.6667ZM42.6665 22.6667H33.3332V28H42.6665V22.6667Z" fill="#EC673B"/>
</svg>
