<svg width="64" height="64" viewBox="0 0 64 64" fill="none" xmlns="http://www.w3.org/2000/svg">
<rect width="64" height="64" fill="#DFEFEF"/>
<path d="M32.0003 42.6667C34.8293 42.6667 37.5424 41.5429 39.5428 39.5425C41.5432 37.5421 42.667 34.829 42.667 32C42.667 29.171 41.5432 26.4579 39.5428 24.4575C37.5424 22.4572 34.8293 21.3334 32.0003 21.3334C29.1713 21.3334 26.4582 22.4572 24.4579 24.4575C22.4575 26.4579 21.3337 29.171 21.3337 32C21.3337 34.829 22.4575 37.5421 24.4579 39.5425C26.4582 41.5429 29.1713 42.6667 32.0003 42.6667V42.6667ZM32.0003 45.3334C24.6363 45.3334 18.667 39.364 18.667 32C18.667 24.636 24.6363 18.6667 32.0003 18.6667C39.3643 18.6667 45.3337 24.636 45.3337 32C45.3337 39.364 39.3643 45.3334 32.0003 45.3334ZM32.0003 34.6667C31.2931 34.6667 30.6148 34.3857 30.1147 33.8856C29.6146 33.3855 29.3337 32.7073 29.3337 32C29.3337 31.2928 29.6146 30.6145 30.1147 30.1144C30.6148 29.6143 31.2931 29.3334 32.0003 29.3334C32.7076 29.3334 33.3858 29.6143 33.8859 30.1144C34.386 30.6145 34.667 31.2928 34.667 32C34.667 32.7073 34.386 33.3855 33.8859 33.8856C33.3858 34.3857 32.7076 34.6667 32.0003 34.6667Z" fill="#31645E"/>
</svg>
