<svg width="20" height="20" viewBox="0 0 20 20" fill="none" xmlns="http://www.w3.org/2000/svg">
<path d="M18.3327 8.33333V16.6667C18.3327 16.8877 18.2449 17.0996 18.0886 17.2559C17.9323 17.4122 17.7204 17.5 17.4993 17.5H2.49935C2.27834 17.5 2.06637 17.4122 1.91009 17.2559C1.75381 17.0996 1.66602 16.8877 1.66602 16.6667V8.33333H18.3327ZM18.3327 6.66667H1.66602V3.33333C1.66602 3.11232 1.75381 2.90036 1.91009 2.74408C2.06637 2.5878 2.27834 2.5 2.49935 2.5H17.4993C17.7204 2.5 17.9323 2.5878 18.0886 2.74408C18.2449 2.90036 18.3327 3.11232 18.3327 3.33333V6.66667ZM12.4993 13.3333V15H15.8327V13.3333H12.4993Z" fill="#4060AA"/>
</svg>
